<svg xmlns="http://www.w3.org/2000/svg" width="78" height="78" viewBox="0 0 78 78" fill="none">
    <g clip-path="url(#clip0_429_127)">
        <path d="M25.5658 78H25.5425C22.6764 77.9366 20.1903 76.703 18.5439 74.5292C16.7943 72.2204 16.2494 69.1031 17.0443 65.9758C17.3042 64.9555 17.2109 64.2837 16.6827 63.3085C15.4779 61.098 14.3298 58.8659 13.28 56.6621C13.1334 56.7655 12.9934 56.8571 12.8635 56.9422C12.7335 57.0272 12.6285 57.0955 12.5435 57.1605L11.1022 58.2208L9.83076 56.9705C8.92929 56.0903 8.706 55.0701 8.57269 54.46C8.54437 54.3299 8.5177 54.2066 8.49438 54.1266C8.3894 53.7848 8.28775 53.4431 8.18611 53.0997C7.47292 50.6958 6.85305 48.6204 5.15174 47.0984C3.16549 45.3263 2.52562 42.7358 3.35211 39.8002L3.47542 39.3601C4.0603 37.278 4.66517 35.1242 5.79327 33.0904C6.05822 32.6153 6.10821 32.3002 5.73495 31.5701C4.18861 28.5378 3.2638 26.569 3.73537 24.5036C4.20694 22.4381 5.90158 21.0645 8.61935 19.0274C8.7243 18.9529 8.82194 18.8686 8.91096 18.7757C8.91205 18.6987 8.90703 18.6218 8.89596 18.5456C8.5563 16.0941 8.97864 13.5973 10.1057 11.3941C11.2329 9.22834 13.0127 7.47229 15.193 6.3747C16.9192 5.48679 18.8308 5.02009 20.7718 5.01274C23.8916 5.01727 26.8844 6.24961 29.1034 8.44347C29.4483 8.77687 29.5733 8.83022 30.0582 8.83022H30.1449C32.3027 8.78688 34.5223 8.38012 37.3417 7.5116C40.1078 6.66809 41.2575 6.20466 43.3238 4.42595C46.5798 1.61368 51.1555 0 55.8912 0C59.8054 0 63.3979 1.13524 66.0107 3.19902C70.6314 6.84813 72.491 12.2226 71.3879 18.7423C70.9264 21.4713 71.0997 23.49 71.9861 25.7105C73.7291 30.0483 74.5212 34.7098 74.309 39.3801C74.119 43.6827 73.0859 48.2153 71.2396 52.8613L70.3898 54.9984L68.3369 53.9649C68.1761 53.8844 68.0213 53.7925 67.8737 53.6898C66.1324 57.1905 64.2311 60.0078 62.0082 62.4017C58.4606 66.2275 54.6581 69.0281 50.389 70.9635L47.4129 72.3121V70.8218C44.3769 73.169 41.4275 75.0277 38.0715 76.3346L36.2386 77.0465L35.682 75.8695C33.7755 77.2549 31.4797 78.0012 29.1234 78.0017L25.5658 78Z" fill="white"/>
        <path d="M25.5885 75.8929C20.8295 75.7845 17.7985 71.5453 19.0898 66.4959C19.4998 64.8972 19.2848 63.662 18.5366 62.3017C17.2036 59.8634 15.9444 57.3839 14.7591 54.8634C14.1292 53.5181 13.5443 53.3881 12.5729 54.4967C12.2263 54.8934 11.7181 55.1501 11.2931 55.4635C10.6883 54.8717 10.6933 54.1432 10.4983 53.5098C9.61516 50.6325 8.98196 47.7019 6.5458 45.5264C5.0761 44.2128 4.82282 42.3424 5.37937 40.372C5.98258 38.2282 6.5458 36.066 7.6339 34.114C8.31876 32.882 8.22045 31.8085 7.61057 30.6132C4.7495 25.0054 4.85448 24.4819 9.88177 20.7144C10.7782 20.0476 11.1315 19.4108 10.9849 18.2739C10.4283 13.9897 12.4579 10.1388 16.1505 8.2501C19.9997 6.28135 24.5237 6.90815 27.6347 9.9488C28.4029 10.7006 29.0828 10.959 30.1909 10.9373C32.882 10.8823 35.4081 10.3122 37.9676 9.52538C40.8686 8.63019 42.3233 8.06673 44.6928 6.02463C50.1001 1.35696 59.4814 0.730164 64.7053 4.85771C69.0944 8.31845 70.1859 13.2145 69.3177 18.3906C68.8261 21.2879 68.9295 23.7251 70.0376 26.4923C73.4419 35.0158 72.6787 43.5543 69.2894 52.0811C68.2213 51.5444 68.4179 50.2624 67.4464 49.5723C65.6868 53.7398 63.5506 57.6473 60.4712 60.9664C57.3919 64.2854 53.8743 67.071 49.5252 69.0431V66.3759C45.641 69.6866 41.8601 72.5955 37.3127 74.3659C36.8461 73.3774 37.436 72.4472 37.1111 71.4136C36.4679 72.1304 35.9013 72.8206 35.2781 73.4507C33.6435 75.0944 31.2406 75.8929 29.1128 75.8896L25.5885 75.8929Z" fill="black"/>
        <path d="M58.0652 11.5224C52.8029 12.0609 51.4682 14.9315 54.3909 19.3574C54.9914 20.225 55.6848 21.0244 56.4588 21.7413C55.8856 19.5275 54.6659 17.3904 56.2406 14.7398C56.7238 18.5739 59.0966 20.8944 61.1895 23.4633C65.0737 28.2277 66.3551 33.8872 66.1335 40.467C64.7088 37.9664 63.9256 35.5893 62.1627 33.5905C64.2356 45.3963 56.4372 55.7252 51.5149 59.0959C56.5038 49.0938 58.2051 39.5918 54.4393 29.4796C55.4857 39.6851 54.7192 49.6039 49.6919 58.7909C47.7856 62.275 45.2862 65.3256 41.7052 67.7745C42.8983 65.3339 44.0631 63.1902 45.0179 60.9563C47.8406 54.3449 48.1556 47.4168 47.504 40.3603C47.1824 36.8695 46.8058 33.3321 48.1272 29.908C43.9098 34.219 46.256 41.0037 46.5442 46.4116C45.7377 42.6058 42.1385 38.5632 41.5736 35.0491C40.8821 30.7499 42.8033 27.7542 46.9508 25.9989C45.1312 24.4185 42.9333 24.832 40.9521 24.3535C41.4853 23.0882 42.7084 22.7182 43.8531 21.6129C41.307 22.2564 39.6557 23.6134 38.0427 24.9803C35.5832 27.0724 33.132 29.1345 29.7811 29.658C28.1653 29.9256 26.5122 29.8649 24.9204 29.4796C28.4947 27.8493 30.8742 25.2237 33.2903 22.6798C37.996 17.7254 43.4549 16.7119 49.6819 19.2824C49.9084 19.3751 50.1398 19.4552 50.3751 19.5225C50.4151 19.5358 50.4801 19.4658 50.5417 19.4341C46.6542 16.0767 41.4436 16.1484 29.0462 19.7292C33.0087 14.8582 40.6438 13.0294 48.7271 15.0615C48.6638 14.8732 48.6538 14.6898 48.5605 14.5814C46.6775 12.461 46.6792 12.4026 48.8354 10.4806C54.2943 5.61618 63.0441 8.14672 64.7155 15.3316C63.5257 13.7496 62.3509 12.4726 60.8213 11.6108C59.2712 10.7278 57.5242 10.2486 55.7407 10.2172C56.4155 11.0107 57.5286 10.7189 58.0652 11.5224Z" fill="url(#paint0_linear_429_127)"/>
        <path d="M38.8241 58.3842L37.4394 60.0912C36.3996 58.5609 36.0614 56.8705 35.4282 55.3252C34.3301 52.6379 33.4003 49.8823 32.3138 47.1901C32.0122 46.4433 31.9956 45.9665 32.8571 45.5648C29.7977 45.3547 27.0783 46.6833 24.1672 46.8017C22.141 46.885 20.1297 47.3351 18.1151 47.6352C17.5152 47.7269 17.037 47.5319 16.5554 47.2101C15.5823 46.56 14.7092 46.0782 13.3278 46.4833C12.0464 46.86 11.0199 45.5264 10.0285 44.7763C9.30196 44.2261 10.1051 43.4426 10.2851 42.5474C12.2497 44.0094 14.0793 45.0096 16.7204 44.6312C19.3615 44.2528 20.7929 43.0809 21.6994 40.7271C21.9053 40.9743 22.1239 41.2108 22.3542 41.4355C22.7808 41.799 22.8541 42.7692 23.6406 42.4691C24.3355 42.2074 24.3855 41.3872 24.5255 40.7221C24.6804 39.9802 24.3122 39.5635 23.6456 39.3151C21.3328 38.4516 19.0222 37.5825 16.7137 36.7079C15.534 36.2611 14.5675 37.0413 13.5044 37.2613C12.7296 37.428 11.9714 37.6731 10.735 38.0131C12.7596 34.5724 15.329 32.5536 18.7233 31.5434C19.3399 32.1002 18.4667 32.5937 18.7417 33.1021C18.8433 33.1171 18.9616 33.1754 19.0416 33.1404C23.414 31.2467 27.8198 30.3615 32.1772 33.0738C34.51 34.5257 36.213 36.7195 38.0393 38.7266C38.8508 39.6168 38.5392 40.9704 38.5809 42.1207C38.7558 46.2983 38.8725 50.4775 39.3657 54.7334C40.0322 53.3131 40.6987 51.8994 41.5469 50.0924C41.5469 53.5198 41.5686 56.5438 41.5202 59.5678C41.5202 59.9428 41.172 60.3379 40.9254 60.6797C39.3174 62.9035 37.691 65.1156 35.8464 67.2044C36.9295 64.2782 38.0121 61.3526 39.0941 58.4275L38.8241 58.3842Z" fill="url(#paint1_linear_429_127)"/>
        <path d="M16.902 23.2783L18.9949 22.8665C17.6735 24.2001 16.4604 25.2404 16.6837 27.0341C16.952 29.2012 19.1148 28.5261 20.4629 29.663C18.335 29.8097 16.612 30.5982 14.8407 31.25C13.8409 31.6167 13.0728 31.26 12.4712 30.3531C10.9049 27.9993 10.9715 26.0622 12.9711 23.9968C14.3858 22.5365 15.9872 21.2562 17.4918 19.8809C18.1423 19.3096 18.7603 18.7024 19.3431 18.0622C20.9178 16.2601 20.8778 15.6933 19.1765 14.1247L20.1663 13.8596C19.0532 12.9661 17.7934 13.1928 16.4321 12.9978C19.9947 11.3691 24.3487 12.2393 26.2933 15.0032C26.7566 15.67 27.1265 15.5366 27.6164 15.5483C28.6878 15.5733 29.7609 15.5483 31.3689 15.5483C25.8501 17.5321 20.9295 19.5342 16.902 23.2783Z" fill="url(#paint2_linear_429_127)"/>
        <path d="M31.659 53.4464C31.3941 54.9067 30.451 56.017 30.5893 57.614C31.1425 57.1305 31.5107 56.7121 31.9656 56.4304C32.5605 56.0636 33.1187 55.4402 33.9652 55.9169C34.8117 56.3937 34.6834 57.1372 34.6084 57.8757C34.4418 59.456 33.6253 60.7796 32.8921 62.1283C32.3922 63.0368 31.834 63.907 31.2258 64.9322L29.6428 61.8599C29.2645 62.3883 28.9263 62.8201 28.643 63.2818C28.1431 64.0837 27.7532 65.3823 26.5384 64.6738C25.5386 64.0854 24.5389 63.0501 24.9088 61.6482C25.8669 57.959 28.0215 55.1968 31.659 53.4464Z" fill="url(#paint3_linear_429_127)"/>
        <path d="M28.6479 53.3448C27.7531 52.758 27.1482 52.0245 26.9166 51.2726C26.5316 50.0157 25.8734 49.9057 24.7387 50.034C22.7224 50.2624 20.6829 50.2974 18.6533 50.4191C18.0984 50.4525 17.4969 50.5858 17.0303 50.2424C15.3423 48.9972 14.1109 49.5389 12.9945 51.6444C12.7262 50.2491 12.0063 49.1222 12.7545 48.3954C13.5027 47.6685 14.7858 47.6202 15.8222 48.3954C16.8587 49.1705 17.9884 49.1405 19.1748 49.0122C22.2975 48.6788 25.4252 48.3704 28.5429 47.9769C29.6443 47.8386 30.0576 48.0536 29.7093 49.2222C29.3261 50.5425 29.0145 51.9011 28.6479 53.3448Z" fill="url(#paint4_linear_429_127)"/>
        <path d="M32.2405 30.7516C35.2165 30.5065 36.9912 28.2194 39.9905 27.4875C38.6758 29.4413 38.8558 31.9552 36.3713 32.6703C34.6916 33.1504 33.4186 32.3603 32.2405 30.7516Z" fill="url(#paint5_linear_429_127)"/>
        <path d="M23.9939 64.4138C25.9935 67.0444 27.3799 67.1961 29.5261 64.8456L30.5409 67.8596C28.2647 67.7579 26.2351 67.5712 24.2089 67.6062C22.7841 67.6295 22.8058 67.0177 23.2757 66.0708C23.549 65.5324 23.4223 64.8206 23.9939 64.4138Z" fill="url(#paint6_linear_429_127)"/>
        <path d="M22.8007 63.1435C21.1777 59.8445 19.6347 56.7238 18.1067 53.6031C19.853 54.6034 20.6278 56.4488 21.9709 57.7707C23.6472 59.4027 23.3689 61.1798 22.8007 63.1435Z" fill="url(#paint7_linear_429_127)"/>
        <path d="M19.2948 39.4967C15.7839 40.8037 12.9112 40.717 10.5667 39.23C14.1059 38.0081 16.2105 38.0748 19.2948 39.4967Z" fill="url(#paint8_linear_429_127)"/>
        <path d="M34.2735 64.1354C33.532 65.4123 32.7288 66.6593 32.0656 67.9695C31.5524 68.9831 30.8992 69.3298 29.7328 69.2698C27.3683 69.1498 24.9921 69.2348 22.6042 69.2348C24.1039 71.8587 25.8919 72.8356 28.0598 72.2354C32.8321 70.9118 32.8321 70.9118 34.3018 66.1458C34.4284 65.7357 34.554 65.3245 34.6784 64.9122C35.0883 64.1904 35.3866 63.4369 35.3766 62.4867C34.7034 62.9285 34.4418 63.5002 34.2735 64.1354Z" fill="url(#paint9_linear_429_127)"/>
        <path d="M61.4079 21.1912C61.4079 21.1912 52.6847 17.7204 45.8528 30.9683C45.8528 30.9683 54.261 23.5033 63.4041 25.3954L61.4079 21.1912Z" fill="black"/>
        <path d="M63.3358 25.2337C63.3358 25.2337 55.6541 22.8632 45.8528 30.9683C45.8528 30.9683 56.184 27.5475 65.3321 29.4396L63.3358 25.2337Z" fill="black"/>
        <path d="M65.3004 29.438C65.3004 29.438 58.1536 25.9372 45.8528 30.9683C45.8528 30.9683 59.3683 29.0196 67.2983 33.6355L65.3004 29.438Z" fill="black"/>
        <path d="M60.8661 21.828C60.8661 21.828 53.7293 18.984 48.1438 29.8297C48.1438 29.8297 55.0207 23.7217 62.4941 25.2737L60.8661 21.828Z" fill="white"/>
        <path d="M62.4525 25.1337C62.4525 25.1337 56.1705 23.1916 48.1555 29.8247C48.1555 29.8247 56.6021 27.0275 64.0805 28.5795L62.4525 25.1337Z" fill="#0039A6"/>
        <path d="M64.0572 28.5678C64.0572 28.5678 58.2068 25.6938 48.1555 29.813C48.1555 29.813 59.2149 28.2194 65.6969 32.0018L64.0572 28.5678Z" fill="#D52B1E"/>
    </g>
    <defs>
        <linearGradient id="paint0_linear_429_127" x1="24.9237" y1="37.8697" x2="66.1568" y2="37.8697" gradientUnits="userSpaceOnUse">
            <stop stop-color="#FF6318"/>
            <stop offset="1" stop-color="#C60000"/>
        </linearGradient>
        <linearGradient id="paint1_linear_429_127" x1="9.7302" y1="49.2839" x2="41.5519" y2="49.2839" gradientUnits="userSpaceOnUse">
            <stop stop-color="#FF6318"/>
            <stop offset="1" stop-color="#C60000"/>
        </linearGradient>
        <linearGradient id="paint2_linear_429_127" x1="11.3731" y1="21.7896" x2="31.3689" y2="21.7896" gradientUnits="userSpaceOnUse">
            <stop stop-color="#FF6318"/>
            <stop offset="0.494792" stop-color="#E3320C"/>
            <stop offset="1" stop-color="#C60000"/>
        </linearGradient>
        <linearGradient id="paint3_linear_429_127" x1="24.8121" y1="59.1876" x2="34.6534" y2="59.1876" gradientUnits="userSpaceOnUse">
            <stop stop-color="#FF6318"/>
            <stop offset="1" stop-color="#C60000"/>
        </linearGradient>
        <linearGradient id="paint4_linear_429_127" x1="12.4246" y1="50.5792" x2="29.831" y2="50.5792" gradientUnits="userSpaceOnUse">
            <stop stop-color="#FF6318"/>
            <stop offset="1" stop-color="#C60000"/>
        </linearGradient>
        <linearGradient id="paint5_linear_429_127" x1="32.2405" y1="30.1481" x2="39.9822" y2="30.1481" gradientUnits="userSpaceOnUse">
            <stop stop-color="#FF6318"/>
            <stop offset="1" stop-color="#C60000"/>
        </linearGradient>
        <linearGradient id="paint6_linear_429_127" x1="22.9941" y1="66.1359" x2="30.5442" y2="66.1359" gradientUnits="userSpaceOnUse">
            <stop stop-color="#FF6318"/>
            <stop offset="1" stop-color="#C60000"/>
        </linearGradient>
        <linearGradient id="paint7_linear_429_127" x1="18.1067" y1="58.3725" x2="23.2406" y2="58.3725" gradientUnits="userSpaceOnUse">
            <stop stop-color="#FF6318"/>
            <stop offset="1" stop-color="#C60000"/>
        </linearGradient>
        <linearGradient id="paint8_linear_429_127" x1="10.5667" y1="39.3917" x2="19.2948" y2="39.3917" gradientUnits="userSpaceOnUse">
            <stop stop-color="#FF6318"/>
            <stop offset="1" stop-color="#C60000"/>
        </linearGradient>
        <linearGradient id="paint9_linear_429_127" x1="22.6092" y1="67.4511" x2="35.3816" y2="67.4511" gradientUnits="userSpaceOnUse">
            <stop stop-color="#FF6318"/>
            <stop offset="1" stop-color="#C60000"/>
        </linearGradient>
        <clipPath id="clip0_429_127">
            <rect width="78" height="78" fill="white"/>
        </clipPath>
    </defs>
</svg>