<svg width="213" height="79" viewBox="0 0 213 79" fill="none" xmlns="http://www.w3.org/2000/svg">
    <g clip-path="url(#clip0_3252_15753)">
        <path d="M111.887 25.0285C112.6 25.9468 112.957 27.0773 112.957 28.4198C112.957 30.3205 112.207 31.7835 110.709 32.8087C109.21 33.8338 107.025 34.3448 104.153 34.3414H92.7712V12.6519H103.524C106.207 12.6519 108.267 13.1583 109.703 14.1711C111.139 15.1839 111.856 16.5568 111.856 18.2899C111.877 19.2762 111.613 20.248 111.096 21.0925C110.578 21.9369 109.828 22.6192 108.932 23.0603C110.102 23.3945 111.136 24.0832 111.887 25.0285ZM97.8377 16.4313V21.5427H102.899C104.156 21.5427 105.109 21.3262 105.76 20.8928C106.412 20.4595 106.736 19.8192 106.735 18.9719C106.735 18.1256 106.41 17.4903 105.76 17.0661C105.11 16.6418 104.157 16.4302 102.899 16.4313H97.8377ZM106.814 29.9069C107.499 29.4736 107.842 28.8025 107.842 27.8931C107.842 26.0925 106.49 25.1923 103.786 25.1923H97.8445V30.5501H103.786C105.122 30.5546 106.13 30.3403 106.811 29.9069H106.814Z" fill="#E4360D"/>
        <path d="M116.825 12.6519H121.918V30.2479H132.954V34.3431H116.825V12.6519Z" fill="#E4360D"/>
        <path d="M150.498 29.6891H140.279L138.324 34.3431H133.105L142.916 12.6586H147.947L157.793 34.3431H152.448L150.498 29.6891ZM148.894 25.8793L145.404 17.5775L141.922 25.8793H148.894Z" fill="#E4360D"/>
        <path d="M164.222 33.2676C162.449 32.3478 160.968 30.9656 159.939 29.272C158.918 27.5124 158.382 25.5211 158.382 23.4947C158.382 21.4683 158.918 19.4771 159.939 17.7174C160.967 16.023 162.449 14.6405 164.222 13.7219C166.035 12.7619 168.074 12.2814 170.339 12.2803C172.114 12.2548 173.874 12.5922 175.51 13.2711C177.014 13.9065 178.346 14.8835 179.394 16.1222L176.123 19.0949C174.638 17.4068 172.794 16.5628 170.589 16.5628C169.316 16.5406 168.06 16.8448 166.943 17.4457C165.889 18.0164 165.023 18.8705 164.443 19.9085C163.855 21.0174 163.547 22.2502 163.547 23.5015C163.547 24.7528 163.855 25.9856 164.443 27.0945C165.024 28.1314 165.89 28.9854 166.943 29.5573C168.06 30.1581 169.316 30.4623 170.589 30.4402C172.791 30.4402 174.634 29.5831 176.123 27.8693L179.394 30.8419C178.351 32.0992 177.013 33.088 175.494 33.7234C173.853 34.4013 172.087 34.7386 170.306 34.7143C168.187 34.7421 166.095 34.2447 164.222 33.2676Z" fill="#E4360D"/>
        <path d="M190.838 25.8185L187.882 28.857V34.3431H182.821V12.6519H187.882V22.7801L197.629 12.6519H203.284L194.165 22.3175L203.818 34.3363H197.881L190.838 25.8185Z" fill="#E4360D"/>
        <path d="M106.799 61.9388L102.553 55.8991H97.8688V61.9388H92.7751V40.251H102.301C104.251 40.251 105.944 40.5712 107.38 41.2115C108.732 41.782 109.885 42.7297 110.697 43.9376C111.474 45.1147 111.861 46.5085 111.86 48.1189C111.859 49.7293 111.466 51.118 110.681 52.285C109.857 53.4826 108.692 54.4144 107.333 54.9639L112.27 61.9338L106.799 61.9388ZM105.509 45.3201C104.709 44.6697 103.546 44.3445 102.019 44.3445H97.8688V51.8984H102.019C103.549 51.8984 104.713 51.5676 105.509 50.9059C106.305 50.2441 106.705 49.3152 106.708 48.1189C106.702 46.9035 106.302 45.9689 105.505 45.3151L105.509 45.3201Z" fill="white"/>
        <path d="M118.317 59.7393C116.566 58.0265 115.691 55.5795 115.692 52.3981V40.251H120.784V52.2073C120.784 56.0898 122.419 58.031 125.69 58.031C127.283 58.031 128.499 57.5613 129.337 56.6215C130.176 55.6818 130.595 54.2105 130.595 52.2073V40.251H135.625V52.4048C135.625 55.5851 134.75 58.0322 133.001 59.7461C131.251 61.4599 128.804 62.3175 125.659 62.3186C122.515 62.3141 120.068 61.4544 118.317 59.7393Z" fill="white"/>
        <path d="M143.843 61.615C142.216 61.1491 140.911 60.5448 139.927 59.802L141.656 56.0225C142.681 56.7443 143.818 57.2988 145.021 57.665C146.28 58.0718 147.595 58.2808 148.919 58.2845C150.365 58.2845 151.434 58.073 152.127 57.6498C152.819 57.2266 153.165 56.664 153.165 55.9618C153.169 55.7155 153.116 55.4717 153.009 55.2487C152.903 55.0259 152.746 54.8298 152.552 54.6755C152.086 54.3048 151.552 54.0261 150.979 53.8551C150.34 53.6491 149.476 53.4241 148.385 53.1799C146.991 52.8671 145.618 52.4726 144.273 51.9983C143.211 51.6073 142.267 50.9567 141.531 50.1077C140.765 49.2412 140.382 48.0849 140.383 46.6387C140.369 45.4217 140.727 44.2286 141.411 43.2154C142.103 42.1936 143.146 41.3834 144.54 40.7846C145.934 40.1859 147.636 39.8866 149.649 39.8866C151.035 39.8854 152.416 40.0515 153.761 40.3812C155.004 40.6715 156.193 41.1523 157.284 41.8059L155.711 45.6175C153.678 44.4819 151.645 43.9138 149.611 43.9126C148.186 43.9126 147.133 44.1376 146.452 44.5878C145.771 45.038 145.428 45.6366 145.424 46.3838C145.424 47.1278 145.817 47.6803 146.603 48.0415C147.389 48.4027 148.588 48.7589 150.201 49.11C151.594 49.4238 152.967 49.8183 154.313 50.2916C155.371 50.6772 156.316 51.3153 157.063 52.1485C157.828 52.9959 158.211 54.1426 158.211 55.5887C158.22 56.7987 157.852 57.9822 157.157 58.98C156.455 60.0017 155.401 60.812 153.998 61.4107C152.594 62.0095 150.886 62.3093 148.873 62.3105C147.171 62.3138 145.478 62.0797 143.843 61.615Z" fill="white"/>
        <path d="M162.902 61.6151C161.277 61.1492 159.973 60.5449 158.988 59.8022L160.717 56.0226C161.741 56.7444 162.877 57.299 164.08 57.6651C165.339 58.0719 166.655 58.2809 167.98 58.2846C169.426 58.2846 170.495 58.0731 171.187 57.6499C171.879 57.2267 172.226 56.6641 172.224 55.9619C172.227 55.7156 172.176 55.4717 172.068 55.2487C171.962 55.0257 171.806 54.8297 171.61 54.6756C171.146 54.3046 170.612 54.026 170.039 53.8552C169.398 53.6493 168.534 53.4243 167.445 53.18C166.052 52.8672 164.679 52.4727 163.333 51.9984C162.268 51.6089 161.321 50.9582 160.582 50.1078C159.817 49.2413 159.435 48.085 159.434 46.6389C159.421 45.4206 159.783 44.2273 160.472 43.2155C161.164 42.1938 162.207 41.3835 163.6 40.7848C164.994 40.186 166.697 39.8867 168.71 39.8867C170.096 39.8857 171.477 40.0518 172.822 40.3813C174.064 40.6713 175.253 41.1521 176.343 41.806L174.772 45.6176C172.738 44.4821 170.706 43.9139 168.672 43.9127C167.244 43.9127 166.191 44.1377 165.511 44.5879C164.831 45.0381 164.488 45.6367 164.483 46.384C164.483 47.1279 164.876 47.6804 165.662 48.0416C166.448 48.4029 167.647 48.759 169.26 49.1101C170.653 49.4238 172.027 49.8183 173.372 50.2918C174.431 50.678 175.375 51.3159 176.123 52.1486C176.888 52.996 177.27 54.1427 177.271 55.5888C177.28 56.7988 176.912 57.9823 176.218 58.9801C175.515 60.0018 174.461 60.8121 173.058 61.4108C171.655 62.0096 169.946 62.3094 167.934 62.3106C166.231 62.314 164.537 62.0798 162.902 61.6151Z" fill="white"/>
        <path d="M180.775 40.251H185.869V61.9338H180.775V40.251Z" fill="white"/>
        <path d="M205.583 57.3004H195.364L193.414 61.9458H188.196L198.005 40.2512H203.037L212.877 61.934H207.533L205.583 57.3004ZM203.979 53.4905L200.489 45.187L196.999 53.4905H203.979Z" fill="white"/>
        <path d="M23.2091 78.9865H23.1853C20.2383 78.9207 17.682 77.6715 15.9891 75.4703C14.1901 73.1324 13.6315 69.9758 14.4471 66.809C14.7161 65.7759 14.6184 65.0973 14.077 64.1082C12.8314 61.8664 11.6543 59.6045 10.5714 57.3729C10.4207 57.4776 10.2767 57.5721 10.1431 57.6582C10.0094 57.7443 9.90152 57.8135 9.81414 57.8776L8.33209 58.9529L7.01619 57.6869C6.08754 56.7939 5.85969 55.7608 5.72262 55.143C5.6935 55.0113 5.66605 54.8864 5.64206 54.8054C5.53412 54.4594 5.42959 54.1133 5.32507 53.7673C4.59175 51.3331 3.95437 49.2298 2.20502 47.6903C0.166118 45.8976 -0.486677 43.2728 0.363155 40.3018L0.489985 39.8545C1.09138 37.7461 1.71156 35.5652 2.87322 33.5058C3.14393 33.0247 3.19703 32.7057 2.81324 31.968C1.22152 28.8958 0.2706 26.9039 0.757198 24.8124C1.24379 22.7209 2.98459 21.33 5.7791 19.2655C5.88749 19.1914 5.98748 19.1058 6.07726 19.0106C6.0793 18.9327 6.07469 18.8548 6.06355 18.7777C5.71377 16.2954 6.14744 13.7672 7.30574 11.536C8.46722 9.34413 10.2973 7.56646 12.5383 6.45335C14.3134 5.55485 16.279 5.08232 18.2748 5.07425C21.4826 5.07919 24.5596 6.32697 26.8417 8.54819C27.1963 8.88579 27.3248 8.94152 27.8234 8.94152H27.9125C30.1399 8.89763 32.4135 8.48576 35.3126 7.6063C38.1516 6.7454 39.3339 6.28288 41.4533 4.48344C44.8064 1.63403 49.5181 0 54.3807 0C58.4037 0 62.0908 1.15123 64.786 3.23932C69.5371 6.93443 71.4493 12.3766 70.315 18.9786C69.8387 21.7419 70.0186 23.7861 70.9301 26.0345C72.7223 30.427 73.5367 35.1472 73.3184 39.8764C73.1231 44.2332 72.0608 48.823 70.1624 53.5276L69.2887 55.6916L67.1777 54.645C67.0116 54.5638 66.852 54.4708 66.6996 54.3665C64.9109 57.9114 62.9561 60.7642 60.6705 63.1899C57.021 67.0622 53.1128 69.8981 48.7231 71.8579L45.6629 73.2252V71.7144C42.5411 74.0912 39.5069 75.9734 36.0579 77.2968L34.1732 78.0176L33.5992 76.8359C31.6391 78.2378 29.2791 78.9929 26.8569 78.9932L23.2091 78.9865Z" fill="white"/>
        <path d="M23.233 76.8528C18.3396 76.7431 15.2213 72.4504 16.5509 67.3391C16.9724 65.7185 16.7513 64.4694 15.982 63.0903C14.6113 60.6202 13.3166 58.1099 12.0978 55.5599C11.4501 54.196 10.8487 54.0643 9.84982 55.1886C9.49344 55.5886 8.97085 55.8486 8.53394 56.166C7.91198 55.5684 7.91711 54.829 7.71664 54.1876C6.80856 51.2757 6.15753 48.3082 3.65258 46.1036C2.14139 44.7734 1.88095 42.8794 2.45322 40.8859C3.07517 38.7134 3.65258 36.524 4.77312 34.5473C5.47732 33.2998 5.37621 32.2127 4.74912 31.0024C1.80555 25.3222 1.91519 24.7938 7.08443 20.9789C8.00622 20.3037 8.36944 19.6588 8.21695 18.5093C7.6464 14.1693 9.73328 10.2717 13.5284 8.35743C17.4863 6.36555 22.1381 7.007 25.337 10.0792C26.1269 10.8388 26.8257 11.092 27.9651 11.0785C30.7322 11.0245 33.3299 10.4472 35.9599 9.64876C38.9446 8.74397 40.4404 8.17173 42.8768 6.10389C48.4367 1.3774 58.0829 0.742697 63.4526 4.92226C67.9674 8.43337 69.0896 13.3911 68.1884 18.6308C67.6847 21.5663 67.7907 24.0325 68.9286 26.8347C72.4307 35.4656 71.646 44.1117 68.1593 52.746C67.061 52.2024 67.2632 50.9043 66.2746 50.2139C64.4652 54.434 62.2687 58.3925 59.1024 61.7533C55.9361 65.1142 52.319 67.9332 47.8471 69.9302V67.2293C43.8532 70.5818 39.9656 73.5274 35.2898 75.3201C34.8083 74.3191 35.4149 73.3788 35.0825 72.3306C34.4211 73.0564 33.8386 73.7553 33.1978 74.395C31.517 76.0594 29.0446 76.868 26.8583 76.8629L23.233 76.8528Z" fill="black"/>
        <path d="M56.627 11.673C51.2162 12.2165 49.8438 15.125 52.8474 19.6068C53.4664 20.4835 54.1793 21.2923 54.9738 22.019C54.3861 19.7789 53.1301 17.6149 54.7509 14.9292C55.2478 18.8117 57.6859 21.1614 59.8396 23.761C63.8335 28.5871 65.1511 34.318 64.9232 40.9789C63.4583 38.4469 62.653 36.0398 60.8402 34.0175C62.9717 45.9705 54.9531 56.4312 49.8918 59.8444C55.0199 49.7162 56.771 40.0944 52.8988 29.8531C53.9747 40.1873 53.1849 50.2311 48.0174 59.5338C46.0573 63.0618 43.4872 66.1526 39.8052 68.6323C41.0319 66.1594 42.2296 63.9885 43.2114 61.7266C46.1138 55.0318 46.4342 48.0197 45.7677 40.8726C45.437 37.3379 45.0498 33.7559 46.4085 30.2903C42.072 34.6539 44.4844 41.5242 44.7808 47.0019C43.9515 43.1498 40.2506 39.0546 39.6698 35.4979C38.9588 31.1428 40.9343 28.1094 45.1989 26.3319C43.3279 24.7316 41.0679 25.1503 39.0307 24.6658C39.579 23.3846 40.8366 23.0098 42.0137 21.8924C39.3957 22.5422 37.6977 23.918 36.0392 25.3005C33.5085 27.419 30.9899 29.5071 27.5443 30.0371C25.8828 30.308 24.1832 30.2466 22.5464 29.8565C26.2216 28.2073 28.6683 25.5486 31.1526 22.9727C35.9912 17.9542 41.6042 16.9278 48.0071 19.5308C48.2403 19.6245 48.4783 19.7062 48.72 19.7756C48.7611 19.7874 48.828 19.7165 48.8914 19.6844C44.8923 16.2846 39.5363 16.3573 26.7889 19.9832C30.8633 15.0507 38.7138 13.1989 47.0253 15.2567C46.9602 15.0642 46.9482 14.8786 46.854 14.7688C44.9179 12.6217 44.9196 12.5626 47.1367 10.6179C52.7497 5.69225 61.7466 8.25471 63.4651 15.5284C62.2418 13.9265 61.0338 12.6335 59.461 11.7607C57.8668 10.8673 56.0705 10.3822 54.2369 10.3496C54.9308 11.1531 56.0753 10.8576 56.627 11.673Z" fill="url(#paint0_linear_3252_15753)"/>
        <path d="M36.8443 59.1234L35.4205 60.8536C34.3496 59.3023 34.0035 57.5906 33.3524 56.0258C32.2233 53.3064 31.2654 50.5161 30.15 47.7899C29.8399 47.0337 29.8229 46.5509 30.7087 46.1424C27.563 45.9297 24.765 47.2751 21.7735 47.3949C19.69 47.4793 17.622 47.9351 15.5487 48.2389C14.9336 48.3318 14.442 48.1326 13.9451 47.8068C12.9445 47.1501 12.0484 46.6606 10.628 47.0725C9.31041 47.454 8.25492 46.1019 7.23546 45.3423C6.48672 44.7852 7.31433 43.9918 7.49766 43.087C9.51772 44.5539 11.3989 45.5634 14.1146 45.1886C16.8303 44.8139 18.302 43.6188 19.2341 41.2353C19.5648 41.5914 19.7174 41.794 19.9076 41.9544C20.3462 42.3207 20.4216 43.3048 21.2303 42.9993C21.9448 42.7342 21.996 41.9037 22.14 41.2319C22.2993 40.4807 21.9208 40.0503 21.2355 39.8055C18.8573 38.9323 16.4814 38.0521 14.1078 37.1654C12.8947 36.713 11.901 37.503 10.8079 37.7275C10.0111 37.8963 9.23154 38.1445 7.96022 38.4888C10.042 35.003 12.6841 32.9588 16.1742 31.9359C16.8081 32.4997 15.9102 32.9993 16.1929 33.5142C16.2957 33.5294 16.4192 33.5885 16.5015 33.553C20.9956 31.6371 25.5273 30.7408 30.0061 33.4855C32.4048 34.9575 34.156 37.1789 36.0356 39.2096C36.8683 40.1127 36.5496 41.4834 36.5924 42.6465C36.7638 46.8767 36.8923 51.1086 37.3994 55.4181C38.0848 53.9816 38.7701 52.5485 39.6422 50.7186C39.6422 54.1892 39.6628 57.253 39.6131 60.3151C39.6131 60.6932 39.2567 61.0933 39.0031 61.4394C37.3497 63.6929 35.6775 65.9329 33.7808 68.0463L37.1201 59.1605L36.8443 59.1234Z" fill="url(#paint1_linear_3252_15753)"/>
        <path d="M14.3019 23.5767L16.4523 23.1581C15.0936 24.5085 13.8462 25.5635 14.0758 27.3782C14.3516 29.5726 16.5756 28.889 17.9618 30.0402C15.7737 30.1888 14.0021 30.9872 12.179 31.6489C11.151 32.0203 10.3629 31.659 9.74268 30.7407C8.13383 28.3556 8.20065 26.3941 10.2567 24.3026C11.7113 22.8239 13.3579 21.5291 14.9034 20.1348C15.5731 19.5568 16.2093 18.9419 16.8087 18.2932C18.4261 16.4684 18.3867 15.8945 16.6373 14.306L17.6549 14.0376C16.5087 13.1328 15.2151 13.3624 13.8153 13.1649C17.4716 11.509 21.9503 12.3901 23.9515 15.1906C24.4278 15.8658 24.8084 15.7324 25.3121 15.7425C26.4138 15.7679 27.517 15.751 29.1705 15.751C23.5009 17.7564 18.443 19.7854 14.3019 23.5767Z" fill="url(#paint2_linear_3252_15753)"/>
        <path d="M29.47 54.1234C29.1976 55.6021 28.2278 56.7264 28.37 58.3435C28.9371 57.8523 29.3175 57.4286 29.7853 57.145C30.3969 56.7719 30.9709 56.1406 31.8413 56.6234C32.7117 57.1062 32.5798 57.859 32.5044 58.6068C32.333 60.2071 31.4937 61.5474 30.7398 62.9147C30.2258 63.833 29.6518 64.7141 29.0264 65.7523C28.4336 64.6162 27.9453 63.6861 27.3987 62.6412C27.0115 63.1763 26.6619 63.6135 26.3707 64.0811C25.8567 64.8948 25.4557 66.208 24.2067 65.4906C23.1701 64.8964 22.1505 63.8465 22.5308 62.4285C23.5195 58.6929 25.728 55.8958 29.47 54.1234Z" fill="url(#paint3_linear_3252_15753)"/>
        <path d="M26.3789 54.0137C25.4571 53.4212 24.8369 52.6767 24.5987 51.9154C24.2029 50.6443 23.5261 50.5329 22.3593 50.6612C20.2861 50.8925 18.1891 50.9279 16.1022 51.0512C15.5316 51.0849 14.9131 51.22 14.4333 50.8722C12.6977 49.613 11.4315 50.1599 10.2835 52.2919C10.0077 50.8807 9.26754 49.7379 10.0351 49.0019C10.8027 48.2659 12.1254 48.217 13.1911 49.0019C14.2569 49.7868 15.4185 49.7564 16.6385 49.6265C19.8494 49.2889 23.0652 48.9766 26.2709 48.5782C27.4035 48.4381 27.8284 48.6558 27.4703 49.8392C27.066 51.1828 26.7558 52.5586 26.3789 54.0137Z" fill="url(#paint4_linear_3252_15753)"/>
        <path d="M30.0732 31.1443C33.1333 30.8944 34.9545 28.5784 38.0317 27.8374C36.6815 29.8158 36.8666 32.3613 34.3119 33.0855C32.5917 33.5733 31.2846 32.7715 30.0732 31.1443Z" fill="url(#paint5_linear_3252_15753)"/>
        <path d="M21.5971 65.2343C23.6531 67.898 25.0786 68.0516 27.2855 65.6731L28.3274 68.7251C25.9886 68.6204 23.9017 68.4314 21.8165 68.4668C20.3516 68.4922 20.3739 67.871 20.8571 66.9122C21.1363 66.3619 21.0059 65.6411 21.5971 65.2343Z" fill="url(#paint6_linear_3252_15753)"/>
        <path d="M20.3666 63.9426C18.6977 60.602 17.1198 57.442 15.54 54.282C17.3339 55.2948 18.1325 57.1651 19.5135 58.5021C21.2371 60.1563 20.9508 61.9558 20.3666 63.9426Z" fill="url(#paint7_linear_3252_15753)"/>
        <path d="M16.7605 39.9981C13.1522 41.3233 10.1983 41.2338 7.7876 39.7298C11.4268 38.4941 13.5908 38.5633 16.7605 39.9981Z" fill="url(#paint8_linear_3252_15753)"/>
        <path d="M32.1635 64.949C31.3994 66.2404 30.5752 67.503 29.8916 68.8315C29.3656 69.8595 28.6922 70.2089 27.4929 70.1482C25.0599 70.0266 22.6183 70.1127 20.1631 70.1127C21.7051 72.7697 23.5436 73.7589 25.7727 73.1512C30.678 71.8109 30.678 71.8109 32.1909 66.9848C32.3212 66.5695 32.4498 66.1526 32.5783 65.7373C32.9998 65.0047 33.3064 64.2417 33.2944 63.2812C32.6056 63.7269 32.3366 64.3059 32.1635 64.949Z" fill="url(#paint9_linear_3252_15753)"/>
        <path d="M60.0636 21.4617C60.0636 21.4617 51.0939 17.9472 44.0691 31.3637C44.0691 31.3637 52.7148 23.803 62.116 25.7206L60.0636 21.4617Z" fill="black"/>
        <path d="M62.0516 25.5554C62.0516 25.5554 54.1496 23.155 44.0767 31.3639C44.0767 31.3639 54.6996 27.8984 64.106 29.8143L62.0516 25.5554Z" fill="black"/>
        <path d="M64.0658 29.8139C64.0658 29.8139 56.7172 26.2606 44.0691 31.3635C44.0691 31.3635 57.9662 29.3902 66.1202 34.0644L64.0658 29.8139Z" fill="black"/>
        <path d="M59.5073 22.1081C59.5073 22.1081 52.1688 19.2266 46.4238 30.2106C46.4238 30.2106 53.4966 24.0257 61.1811 25.5972L59.5073 22.1081Z" fill="white"/>
        <path d="M61.1378 25.4539C61.1378 25.4539 54.6786 23.4873 46.4355 30.204C46.4355 30.204 55.1223 27.3715 62.8119 28.9431L61.1378 25.4539Z" fill="#0039A6"/>
        <path d="M62.7878 28.931C62.7878 28.931 56.7706 26.0209 46.4355 30.192C46.4355 30.192 57.8087 28.5782 64.4737 32.4084L62.7878 28.931Z" fill="#D52B1E"/>
    </g>
    <defs>
        <linearGradient id="paint0_linear_3252_15753" x1="22.5498" y1="38.3507" x2="64.9472" y2="38.3507" gradientUnits="userSpaceOnUse">
            <stop stop-color="#FF6318"/>
            <stop offset="1" stop-color="#C60000"/>
        </linearGradient>
        <linearGradient id="paint1_linear_3252_15753" x1="6.92706" y1="49.9084" x2="39.6457" y2="49.9084" gradientUnits="userSpaceOnUse">
            <stop stop-color="#FF6318"/>
            <stop offset="1" stop-color="#C60000"/>
        </linearGradient>
        <linearGradient id="paint2_linear_3252_15753" x1="8.61528" y1="22.0693" x2="29.1773" y2="22.0693" gradientUnits="userSpaceOnUse">
            <stop stop-color="#FF6318"/>
            <stop offset="1" stop-color="#C60000"/>
        </linearGradient>
        <linearGradient id="paint3_linear_3252_15753" x1="22.4332" y1="59.937" x2="32.5541" y2="59.937" gradientUnits="userSpaceOnUse">
            <stop stop-color="#FF6318"/>
            <stop offset="1" stop-color="#C60000"/>
        </linearGradient>
        <linearGradient id="paint4_linear_3252_15753" x1="9.69758" y1="51.22" x2="27.5954" y2="51.22" gradientUnits="userSpaceOnUse">
            <stop stop-color="#FF6318"/>
            <stop offset="1" stop-color="#C60000"/>
        </linearGradient>
        <linearGradient id="paint5_linear_3252_15753" x1="30.0732" y1="30.5332" x2="38.0317" y2="30.5332" gradientUnits="userSpaceOnUse">
            <stop stop-color="#FF6318"/>
            <stop offset="1" stop-color="#C60000"/>
        </linearGradient>
        <linearGradient id="paint6_linear_3252_15753" x1="20.5658" y1="66.9746" x2="28.3274" y2="66.9746" gradientUnits="userSpaceOnUse">
            <stop stop-color="#FF6318"/>
            <stop offset="1" stop-color="#C60000"/>
        </linearGradient>
        <linearGradient id="paint7_linear_3252_15753" x1="15.54" y1="59.1131" x2="20.8189" y2="59.1131" gradientUnits="userSpaceOnUse">
            <stop stop-color="#FF6318"/>
            <stop offset="1" stop-color="#C60000"/>
        </linearGradient>
        <linearGradient id="paint8_linear_3252_15753" x1="7.7876" y1="39.8918" x2="16.7605" y2="39.8918" gradientUnits="userSpaceOnUse">
            <stop stop-color="#FF6318"/>
            <stop offset="1" stop-color="#C60000"/>
        </linearGradient>
        <linearGradient id="paint9_linear_3252_15753" x1="20.1699" y1="68.3048" x2="33.3029" y2="68.3048" gradientUnits="userSpaceOnUse">
            <stop stop-color="#FF6318"/>
            <stop offset="1" stop-color="#C60000"/>
        </linearGradient>
        <clipPath id="clip0_3252_15753">
            <rect width="213" height="79" fill="white"/>
        </clipPath>
    </defs>
</svg>
