<svg width="128" height="64" viewBox="0 0 128 64" fill="none" xmlns="http://www.w3.org/2000/svg">
    <path d="M27.8821 46.8419C28.0239 46.9663 28.1758 47.0907 28.3226 47.215C25.4311 49.1844 21.9623 50.335 18.2302 50.335C8.16308 50.335 0 41.9807 0 31.6777C0 21.3748 8.16308 13.0205 18.2302 13.0205C21.9623 13.0205 25.4311 14.171 28.3226 16.1404C28.1758 16.2648 28.0239 16.384 27.8821 16.5135C23.5878 20.3383 21.1217 25.8681 21.1217 31.6777C21.1217 37.4926 23.5878 43.0172 27.8821 46.8419Z" fill="white"/>
    <path d="M40.7647 13.0205C37.0326 13.0205 33.5638 14.171 30.6723 16.1404C30.7213 16.1819 30.7708 16.2227 30.8203 16.2636C30.9193 16.3454 31.0183 16.4272 31.1129 16.5135C35.4071 20.3383 37.8732 25.8629 37.8732 31.6777C37.8732 37.4926 35.4122 43.0172 31.1179 46.8419C31.0234 46.9248 30.9244 47.0077 30.8255 47.0906C30.7759 47.1321 30.7263 47.1735 30.6774 47.215C33.5689 49.1844 37.0377 50.335 40.7698 50.335C50.8369 50.335 59 41.9807 59 31.6777C58.9949 21.3748 50.8319 13.0205 40.7647 13.0205Z" fill="white"/>
    <path fill-rule="evenodd" clip-rule="evenodd" d="M10.7305 56.6058V59.7154H9.66706V56.9583C9.66706 56.1187 9.32271 55.6522 8.60363 55.6522C7.90481 55.6522 7.41867 56.1083 7.41867 56.9686V59.7154H6.35524V56.9583C6.35524 56.1187 6.00077 55.6522 5.30195 55.6522C4.58287 55.6522 4.11699 56.1083 4.11699 56.9686V59.7154H3.05356V54.7608H4.10685V55.3724C4.50184 54.792 5.00824 54.6365 5.52476 54.6365C6.2641 54.6365 6.79075 54.9682 7.12497 55.5175C7.5706 54.8231 8.20865 54.6261 8.82645 54.6365C10.0013 54.6468 10.7305 55.4346 10.7305 56.6058ZM24.7475 54.7608H26.4692V55.7455H24.7475V57.9844C24.7475 58.4819 24.9197 58.8136 25.4463 58.8136C25.7198 58.8136 26.0641 58.7203 26.3781 58.5338L26.6819 59.4562C26.3477 59.6946 25.821 59.8398 25.3653 59.8398C24.1196 59.8398 23.6841 59.1557 23.6841 58.0051V55.7455H22.7016V54.7608H23.6841V53.2579H24.7475V54.7608ZM34.1765 55.362C34.45 54.9267 34.845 54.6365 35.4527 54.6365C35.6654 54.6365 35.9692 54.6779 36.2021 54.7712L35.878 55.787C35.6552 55.6937 35.4324 55.6626 35.2197 55.6626C34.531 55.6626 34.1867 56.1187 34.1867 56.9375V59.7154H33.1334V54.7608H34.1765V55.362ZM19.8962 54.6365C20.666 54.6365 21.3648 54.8127 21.8712 55.1547L21.4154 56.0254C21.1217 55.8388 20.5242 55.6004 19.9064 55.6004C19.3291 55.6004 18.9847 55.8181 18.9847 56.1809C18.9847 56.5126 19.3493 56.6059 19.8051 56.668L20.3013 56.7406C21.3546 56.8961 21.9927 57.3521 21.9927 58.2228C21.9927 59.166 21.1825 59.8398 19.7848 59.8398C18.9949 59.8398 18.2656 59.6325 17.6883 59.1971L18.1846 58.3575C18.5391 58.6374 19.0657 58.8758 19.795 58.8758C20.514 58.8758 20.8989 58.6581 20.8989 58.2746C20.8989 57.9948 20.6254 57.8393 20.0481 57.7564L19.5519 57.6838C18.4682 57.5283 17.8808 57.0308 17.8808 56.2223C17.8808 55.2377 18.6708 54.6365 19.8962 54.6365ZM48.8063 55.362C49.0797 54.9267 49.4747 54.6365 50.0824 54.6365C50.2951 54.6365 50.5989 54.6779 50.8319 54.7712L50.5078 55.787C50.2849 55.6937 50.0621 55.6626 49.8495 55.6626C49.1608 55.6626 48.8164 56.1187 48.8164 56.9375V59.7154H47.7631V54.7608H48.8063V55.362ZM39.0987 59.8398C37.539 59.8398 36.5161 58.7411 36.5161 57.2381C36.5161 55.7352 37.539 54.6365 39.0987 54.6365C39.8279 54.6365 40.314 54.8023 40.8407 55.2273L40.3343 56.098C39.9393 55.8077 39.5241 55.6522 39.0683 55.6522C38.2277 55.6626 37.6099 56.2845 37.6099 57.2381C37.6099 58.1917 38.2277 58.8136 39.0683 58.824C39.5241 58.824 39.9393 58.6685 40.3343 58.3783L40.8407 59.2489C40.314 59.6739 39.8279 59.8398 39.0987 59.8398ZM46.3756 54.7608V57.2381V59.7154H45.3223V59.1142C44.9881 59.5599 44.4817 59.8398 43.793 59.8398C42.4358 59.8398 41.3724 58.7514 41.3724 57.2381C41.3724 55.7248 42.4358 54.6365 43.793 54.6365C44.4817 54.6365 44.9881 54.9163 45.3223 55.362V54.7608H46.3756ZM43.9297 55.6522C43.0182 55.6522 42.4612 56.3674 42.4612 57.2381C42.4612 58.1088 43.0131 58.824 43.9297 58.824C44.8007 58.824 45.3881 58.1399 45.3881 57.2381C45.3881 56.3363 44.8007 55.6522 43.9297 55.6522ZM27.3402 57.2381C27.3402 55.6937 28.3328 54.6365 29.7507 54.6365C31.1078 54.6365 32.0396 55.6937 32.0497 57.2381C32.0497 57.3832 32.0396 57.518 32.0294 57.6527H28.434C28.586 58.5441 29.2038 58.8654 29.8823 58.8654C30.3685 58.8654 30.885 58.6789 31.2901 58.3472L31.8066 59.1453C31.2192 59.6532 30.5508 59.8398 29.8216 59.8398C28.3733 59.8398 27.3402 58.8136 27.3402 57.2381ZM30.9559 56.8028C30.8445 56.0358 30.409 55.6004 29.7304 55.6004C28.9809 55.6004 28.5556 56.0876 28.4442 56.8028H30.9559ZM56.149 52.7707V57.2381V59.7154H55.0957V59.1142C54.7615 59.5599 54.2551 59.8398 53.5664 59.8398C52.2092 59.8398 51.1458 58.7514 51.1458 57.2381C51.1458 55.7248 52.2092 54.6365 53.5664 54.6365C54.2551 54.6365 54.7615 54.9163 55.0957 55.362V52.7707H56.149ZM53.6981 55.6522C52.7865 55.6522 52.2295 56.3674 52.2295 57.2381C52.2295 58.1088 52.7865 58.824 53.6981 58.824C54.569 58.824 55.1565 58.1399 55.1565 57.2381C55.1565 56.3363 54.569 55.6522 53.6981 55.6522ZM16.6654 54.7608V57.2381V59.7154H15.6121V59.1142C15.2779 59.5599 14.7715 59.8398 14.0828 59.8398C12.7257 59.8398 11.6623 58.7514 11.6623 57.2381C11.6623 55.7248 12.7257 54.6365 14.0828 54.6365C14.7715 54.6365 15.2779 54.9163 15.6121 55.362V54.7608H16.6654ZM14.2145 55.6522C13.303 55.6522 12.746 56.3674 12.746 57.2381C12.746 58.1088 13.303 58.824 14.2145 58.824C15.0855 58.824 15.6729 58.1399 15.6729 57.2381C15.6729 56.3363 15.0855 55.6522 14.2145 55.6522ZM58.0986 59.0365C58.0379 59.0106 57.972 59.0002 57.9062 59.0002C57.8353 59.0002 57.7695 59.0106 57.7138 59.0365C57.653 59.0624 57.6023 59.0935 57.5568 59.1401C57.5112 59.1816 57.4758 59.2334 57.4504 59.2956C57.4251 59.3578 57.4099 59.42 57.4099 59.4873C57.4099 59.5547 57.4251 59.6221 57.4504 59.6791C57.4758 59.7361 57.5112 59.7879 57.5568 59.8346C57.6023 59.876 57.653 59.9123 57.7138 59.9382C57.7745 59.9642 57.8353 59.9797 57.9062 59.9797C57.9771 59.9797 58.0379 59.9642 58.0986 59.9382C58.1594 59.9123 58.21 59.8812 58.2556 59.8346C58.3012 59.7931 58.3366 59.7361 58.3619 59.6791C58.3873 59.6169 58.4024 59.5547 58.4024 59.4873C58.4024 59.42 58.3873 59.3578 58.3619 59.2956C58.3366 59.2386 58.3012 59.1868 58.2556 59.1401C58.21 59.0987 58.1594 59.0624 58.0986 59.0365ZM58.053 59.8449C58.0075 59.8657 57.9568 59.876 57.9062 59.876C57.8505 59.876 57.8049 59.8657 57.7593 59.8449C57.7138 59.8242 57.6732 59.7983 57.6378 59.762C57.6024 59.7258 57.577 59.6843 57.5568 59.6376C57.5365 59.591 57.5264 59.5392 57.5264 59.4873C57.5264 59.4355 57.5365 59.3837 57.5568 59.3371C57.577 59.2904 57.6024 59.2489 57.6378 59.2127C57.6732 59.1764 57.7138 59.1505 57.7593 59.1298C57.8049 59.109 57.8555 59.0987 57.9062 59.0987C57.9619 59.0987 58.0075 59.109 58.053 59.1298C58.0986 59.1505 58.1341 59.1764 58.1695 59.2127C58.205 59.2489 58.2303 59.2904 58.2505 59.3371C58.2708 59.3837 58.2809 59.4355 58.2809 59.4873C58.2809 59.5392 58.2708 59.591 58.2505 59.6376C58.2303 59.6843 58.205 59.7258 58.1695 59.762C58.1391 59.7983 58.0986 59.8242 58.053 59.8449ZM58.0632 59.3008C58.0328 59.2749 57.9872 59.2593 57.9315 59.2593V59.2645H57.7188V59.7206H57.815V59.5495H57.8606L57.9973 59.7206H58.1138L57.967 59.5495C58.0125 59.5444 58.048 59.5288 58.0733 59.5029C58.0986 59.477 58.1087 59.4459 58.1087 59.4096C58.1087 59.363 58.0936 59.3267 58.0632 59.3008ZM57.8252 59.4718V59.3474H57.9366C57.9619 59.3474 57.9821 59.3526 57.9973 59.363C58.0125 59.3733 58.0176 59.3889 58.0176 59.4096C58.0176 59.4303 58.0125 59.4459 57.9973 59.4562C57.9821 59.4666 57.9619 59.4718 57.9366 59.4718H57.8252ZM57.2529 42.6388V43.24H57.1263V42.6388H56.8883V42.5145H57.4909V42.6388H57.2529ZM58.4227 42.5145V43.24V43.2452H58.291V42.6958L58.0936 43.1675H57.9568L57.7593 42.6958V43.24H57.6277V42.5145H57.815L58.0277 43.012L58.2404 42.5145H58.4227Z" fill="white"/>
    <path d="M29.4975 17.0163C29.2645 17.208 29.0316 17.3998 28.8088 17.6019C24.9652 21.0224 22.5345 26.0598 22.5345 31.6777C22.5345 37.2956 24.9652 42.3331 28.8088 45.7536C29.0316 45.9557 29.2645 46.1474 29.4975 46.3392C29.7304 46.1474 29.9633 45.9557 30.1862 45.7536C34.0297 42.3331 36.4604 37.2956 36.4604 31.6777C36.4604 26.0598 34.0297 21.0224 30.1862 17.6019C29.9633 17.3998 29.7304 17.2028 29.4975 17.0163Z" fill="white"/>
</svg>
